{
  "accessors": [
    {
      "bufferView": 2,
      "componentType": 5126,
      "count": 570,
      "max": [
        -2.0203280448913574,
        4.269169330596924,
        -14.40310287475586
      ],
      "min": [
        -10.673222541809082,
        -0.05534573271870613,
        -22.569259643554688
      ],
      "type": "VEC3"
    },
    {
      "bufferView": 2,
      "byteOffset": 6840,
      "componentType": 5126,
      "count": 570,
      "max": [
        0.9999528527259827,
        1.0,
        0.9999996423721313
      ],
      "min": [
        -0.9999528527259827,
        -1.0,
        -0.9999996423721313
      ],
      "type": "VEC3"
    },
    {
      "bufferView": 1,
      "componentType": 5126,
      "count": 570,
      "max": [
        0.9778789281845093,
        0.9971065521240234
      ],
      "min": [
        0.019414246082305908,
        0.006681203842163086
      ],
      "type": "VEC2"
    },
    {
      "bufferView": 0,
      "componentType": 5125,
      "count": 2106,
      "type": "SCALAR"
    },
    {
      "bufferView": 2,
      "byteOffset": 13680,
      "componentType": 5126,
      "count": 36,
      "max": [
        -2.2414350509643555,
        1.5817391872406006,
        -18.840787887573242
      ],
      "min": [
        -5.755862236022949,
        1.5817391872406006,
        -22.348575592041016
      ],
      "type": "VEC3"
    },
    {
      "bufferView": 2,
      "byteOffset": 14112,
      "componentType": 5126,
      "count": 36,
      "max": [
        0.0,
        1.0,
        2.8998312018302386e-07
      ],
      "min": [
        0.0,
        1.0,
        -2.8998300649618614e-07
      ],
      "type": "VEC3"
    },
    {
      "bufferView": 1,
      "byteOffset": 4560,
      "componentType": 5126,
      "count": 36,
      "max": [
        0.8659191727638245,
        0.5030043125152588
      ],
      "min": [
        0.5811045169830322,
        0.21765035390853882
      ],
      "type": "VEC2"
    },
    {
      "bufferView": 1,
      "byteOffset": 4848,
      "componentType": 5126,
      "count": 36,
      "max": [
        0.8659191727638245,
        0.5030043125152588
      ],
      "min": [
        0.5811045169830322,
        0.21765035390853882
      ],
      "type": "VEC2"
    },
    {
      "bufferView": 0,
      "byteOffset": 8424,
      "componentType": 5125,
      "count": 36,
      "type": "SCALAR"
    },
    {
      "bufferView": 2,
      "byteOffset": 14544,
      "componentType": 5126,
      "count": 1258,
      "max": [
        -3.414024829864502,
        1.9909512996673584,
        -14.693498611450195
      ],
      "min": [
        -8.33281135559082,
        0.6829578280448914,
        -18.281166076660156
      ],
      "type": "VEC3"
    },
    {
      "bufferView": 2,
      "byteOffset": 29640,
      "componentType": 5126,
      "count": 1258,
      "max": [
        0.9987111687660217,
        0.9999712705612183,
        1.0
      ],
      "min": [
        -0.998962938785553,
        -0.9999712705612183,
        -1.0
      ],
      "type": "VEC3"
    },
    {
      "bufferView": 1,
      "byteOffset": 5136,
      "componentType": 5126,
      "count": 1258,
      "max": [
        0.9865899085998535,
        0.990990161895752
      ],
      "min": [
        0.005848228931427002,
        0.013643085956573486
      ],
      "type": "VEC2"
    },
    {
      "bufferView": 0,
      "byteOffset": 8568,
      "componentType": 5125,
      "count": 3204,
      "type": "SCALAR"
    },
    {
      "bufferView": 2,
      "byteOffset": 44736,
      "componentType": 5126,
      "count": 981,
      "max": [
        -2.220353126525879,
        2.643484592437744,
        -14.40218734741211
      ],
      "min": [
        -9.413808822631836,
        0.028798699378967285,
        -18.48485565185547
      ],
      "type": "VEC3"
    },
    {
      "bufferView": 2,
      "byteOffset": 56508,
      "componentType": 5126,
      "count": 981,
      "max": [
        0.9901981353759766,
        0.9995561838150024,
        1.0
      ],
      "min": [
        -0.9918276071548462,
        -1.0,
        -1.0
      ],
      "type": "VEC3"
    },
    {
      "bufferView": 1,
      "byteOffset": 15200,
      "componentType": 5126,
      "count": 981,
      "max": [
        0.9871342182159424,
        0.9956681728363037
      ],
      "min": [
        0.007899343967437744,
        0.0140380859375
      ],
      "type": "VEC2"
    },
    {
      "bufferView": 0,
      "byteOffset": 21384,
      "componentType": 5125,
      "count": 2670,
      "type": "SCALAR"
    }
  ],
  "asset": {
    "extras": {
      "author": "Suushimi (https://sketchfab.com/Suushimi)",
      "license": "CC-BY-NC-4.0 (http://creativecommons.org/licenses/by-nc/4.0/)",
      "source": "https://sketchfab.com/3d-models/did-someone-say-sushi-3b3e4d1af0fd4a62bb0b628d358fe492",
      "title": "Did someone say Sushi?"
    },
    "generator": "Sketchfab-12.66.0",
    "version": "2.0"
  },
  "bufferViews": [
    {
      "buffer": 0,
      "byteLength": 32064,
      "name": "floatBufferViews",
      "target": 34963
    },
    {
      "buffer": 0,
      "byteLength": 23048,
      "byteOffset": 32064,
      "byteStride": 8,
      "name": "floatBufferViews",
      "target": 34962
    },
    {
      "buffer": 0,
      "byteLength": 68280,
      "byteOffset": 55112,
      "byteStride": 12,
      "name": "floatBufferViews",
      "target": 34962
    }
  ],
  "buffers": [
    {
      "byteLength": 123392,
      "uri": "scene.bin"
    }
  ],
  "images": [
    {
      "uri": "textures/Sushi_Tex7_baseColor.jpeg"
    },
    {
      "uri": "textures/Miso_Transp_baseColor.png"
    },
    {
      "uri": "textures/Sushi_Tex8_baseColor.png"
    },
    {
      "uri": "textures/Sushi_Tex5_baseColor.png"
    }
  ],
  "materials": [
    {
      "doubleSided": true,
      "name": "Sushi_Tex7",
      "pbrMetallicRoughness": {
        "baseColorTexture": {
          "index": 0
        },
        "metallicFactor": 0.0,
        "roughnessFactor": 0.6
      }
    },
    {
      "alphaMode": "BLEND",
      "doubleSided": true,
      "name": "Miso_Transp",
      "pbrMetallicRoughness": {
        "baseColorFactor": [
          1.0,
          1.0,
          1.0,
          0.2883003048780488
        ],
        "baseColorTexture": {
          "index": 1
        },
        "metallicFactor": 0.0,
        "roughnessFactor": 0.6
      }
    },
    {
      "doubleSided": true,
      "name": "Sushi_Tex8",
      "pbrMetallicRoughness": {
        "baseColorTexture": {
          "index": 2
        },
        "metallicFactor": 0.0,
        "roughnessFactor": 0.6
      }
    },
    {
      "doubleSided": true,
      "name": "Sushi_Tex5",
      "pbrMetallicRoughness": {
        "baseColorTexture": {
          "index": 3
        },
        "metallicFactor": 0.0,
        "roughnessFactor": 0.6
      }
    }
  ],
  "meshes": [
    {
      "name": "Sushi_Sushi_Tex7_0",
      "primitives": [
        {
          "attributes": {
            "NORMAL": 1,
            "POSITION": 0,
            "TEXCOORD_0": 2
          },
          "indices": 3,
          "material": 0,
          "mode": 4
        }
      ]
    },
    {
      "name": "Sushi_Miso_Transp_0",
      "primitives": [
        {
          "attributes": {
            "NORMAL": 5,
            "POSITION": 4,
            "TEXCOORD_0": 6,
            "TEXCOORD_1": 7
          },
          "indices": 8,
          "material": 1,
          "mode": 4
        }
      ]
    },
    {
      "name": "Sushi_Sushi_Tex8_0",
      "primitives": [
        {
          "attributes": {
            "NORMAL": 10,
            "POSITION": 9,
            "TEXCOORD_0": 11
          },
          "indices": 12,
          "material": 2,
          "mode": 4
        }
      ]
    },
    {
      "name": "Sushi_Sushi_Tex5_0",
      "primitives": [
        {
          "attributes": {
            "NORMAL": 14,
            "POSITION": 13,
            "TEXCOORD_0": 15
          },
          "indices": 16,
          "material": 3,
          "mode": 4
        }
      ]
    }
  ],
  "nodes": [
    {
      "children": [
        1
      ],
      "matrix": [
        1.0,
        0.0,
        0.0,
        0.0,
        0.0,
        2.220446049250313e-16,
        -1.0,
        0.0,
        0.0,
        1.0,
        2.220446049250313e-16,
        0.0,
        0.0,
        0.0,
        0.0,
        1.0
      ],
      "name": "Sketchfab_model"
    },
    {
      "children": [
        2
      ],
      "matrix": [
        1.0,
        0.0,
        0.0,
        0.0,
        0.0,
        0.0,
        1.0,
        0.0,
        0.0,
        -1.0,
        0.0,
        0.0,
        0.0,
        0.0,
        0.0,
        1.0
      ],
      "name": "9e29add677134b00b09fbbfa13a1a717.fbx"
    },
    {
      "children": [
        3
      ],
      "name": "RootNode"
    },
    {
      "children": [
        4,
        5,
        6,
        7
      ],
      "matrix": [
        1.0,
        0.0,
        0.0,
        0.0,
        0.0,
        1.0,
        0.0,
        0.0,
        0.0,
        0.0,
        1.0,
        0.0,
        6.346775054931641,
        -2.1069118976593018,
        18.4857234954834,
        1.0
      ],
      "name": "Sushi"
    },
    {
      "mesh": 0,
      "name": "Sushi_Sushi_Tex7_0"
    },
    {
      "mesh": 1,
      "name": "Sushi_Miso_Transp_0"
    },
    {
      "mesh": 2,
      "name": "Sushi_Sushi_Tex8_0"
    },
    {
      "mesh": 3,
      "name": "Sushi_Sushi_Tex5_0"
    }
  ],
  "samplers": [
    {
      "magFilter": 9729,
      "minFilter": 9987,
      "wrapS": 10497,
      "wrapT": 10497
    }
  ],
  "scene": 0,
  "scenes": [
    {
      "name": "Sketchfab_Scene",
      "nodes": [
        0
      ]
    }
  ],
  "textures": [
    {
      "sampler": 0,
      "source": 0
    },
    {
      "sampler": 0,
      "source": 1
    },
    {
      "sampler": 0,
      "source": 2
    },
    {
      "sampler": 0,
      "source": 3
    }
  ]
}
